<?xml version="1.0" encoding="UTF-8"?>
<!DOCTYPE svg PUBLIC "-//W3C//DTD SVG 1.1//EN" "http://www.w3.org/Graphics/SVG/1.1/DTD/svg11.dtd">
<!-- Creator: CorelDRAW -->
<svg xmlns="http://www.w3.org/2000/svg" xml:space="preserve" width="6.53281in" height="1.50356in" version="1.1" style="shape-rendering:geometricPrecision; text-rendering:geometricPrecision; image-rendering:optimizeQuality; fill-rule:evenodd; clip-rule:evenodd"
viewBox="0 0 5367.28 1235.3"
 xmlns:xlink="http://www.w3.org/1999/xlink"
 xmlns:xodm="http://www.corel.com/coreldraw/odm/2003">
 <defs>
  <style type="text/css">
   <![CDATA[
    .fil3 {fill:#07A626}
    .fil4 {fill:white}
    .fil2 {fill:#FEFEFE;fill-rule:nonzero}
    .fil0 {fill:#07A626;fill-rule:nonzero}
    .fil1 {fill:black;fill-opacity:0.050980}
   ]]>
  </style>
   <clipPath id="id0" style="clip-rule:nonzero">
    <path d="M1441.12 854.94c-70.36,0 -111.4,-61.58 -111.4,-165.43 0,-101.43 41.04,-163.01 111.4,-163.01 49.25,0 86.78,35.02 93.82,89.36l201.7 0c-11.73,-155.77 -125.48,-252.37 -296.69,-252.37 -195.84,0 -321.32,129.2 -321.32,327.23 0,199.24 125.48,327.24 321.32,327.24 171.21,0 284.96,-96.6 296.69,-252.37l-201.7 0c-7.04,54.34 -44.56,89.36 -93.82,89.36z"/>
   </clipPath>
   <clipPath id="id1" style="clip-rule:nonzero">
    <path d="M2444.95 1003.46l0 -857.33 -209.91 0 0 322.41c-34.01,-65.21 -104.37,-105.05 -187.63,-105.05 -148.93,0 -249.78,131.62 -249.78,327.23 0,198.03 99.68,327.24 249.78,327.24 84.44,0 154.79,-39.85 189.98,-106.26l11.73 91.77 195.84 0zm-205.22 -312.75c0,101.43 -44.56,164.22 -114.92,164.22 -69.19,0 -113.75,-64 -113.75,-164.22 0,-100.22 44.56,-164.22 113.75,-164.22 70.36,0 114.92,62.79 114.92,164.22z"/>
   </clipPath>
   <clipPath id="id2" style="clip-rule:nonzero">
    <path d="M2950.37 371.93c-14.07,-3.62 -31.66,-6.04 -49.25,-6.04 -64.5,0 -119.61,37.43 -150.1,105.05l-11.73 -92.98 -195.84 0 0 625.49 209.91 0 0 -277.73c0,-105.05 55.12,-165.43 150.1,-165.43 19.93,0 35.18,2.41 46.9,6.04l0 -194.41z"/>
   </clipPath>
   <clipPath id="id3" style="clip-rule:nonzero">
    <path d="M3225.95 1003.46l0 -857.33 -209.91 0 0 857.33 209.91 0z"/>
   </clipPath>
   <clipPath id="id4" style="clip-rule:nonzero">
    <path d="M3629.36 363.48c-191.15,0 -322.49,134.04 -322.49,327.23 0,193.2 131.34,327.24 322.49,327.24 191.15,0 320.14,-134.04 320.14,-327.24 0,-193.2 -129,-327.23 -320.14,-327.23zm-1.17 491.46c-68.02,0 -111.41,-64 -111.41,-164.22 0,-101.43 43.39,-164.22 111.41,-164.22 69.18,0 111.41,62.79 111.41,164.22 0,100.22 -42.22,164.22 -111.41,164.22z"/>
   </clipPath>
   <clipPath id="id5" style="clip-rule:nonzero">
    <path d="M4327.1 1081.95c-55.11,0 -89.12,-24.15 -100.85,-71.24l-201.7 0c9.38,134.03 128.99,224.6 297.86,224.6 200.53,0 322.49,-102.64 322.49,-291.01l0 -566.32 -197.01 0 -10.55 84.53c-30.49,-62.79 -98.51,-99.02 -179.42,-99.02 -151.28,0 -249.78,120.75 -249.78,301.88 0,181.13 100.85,301.88 250.95,301.88 85.61,0 145.41,-39.85 175.91,-99.02l0 85.73c0,86.94 -37.53,128 -107.89,128zm116.1 -414.17c0,90.56 -44.56,149.73 -113.75,149.73 -66.84,0 -111.41,-59.17 -111.41,-149.73 0,-91.77 44.56,-149.73 111.41,-149.73 69.19,0 113.75,57.96 113.75,149.73z"/>
   </clipPath>
   <clipPath id="id6" style="clip-rule:nonzero">
    <path d="M5047.13 363.48c-191.15,0 -322.49,134.04 -322.49,327.23 0,193.2 131.34,327.24 322.49,327.24 191.15,0 320.14,-134.04 320.14,-327.24 0,-193.2 -128.99,-327.23 -320.14,-327.23zm-1.17 491.46c-68.01,0 -111.41,-64 -111.41,-164.22 0,-101.43 43.39,-164.22 111.41,-164.22 69.19,0 111.41,62.79 111.41,164.22 0,100.22 -42.22,164.22 -111.41,164.22z"/>
   </clipPath>
 </defs>
 <g id="Layer_x0020_1">
  <metadata id="CorelCorpID_0Corel-Layer"/>
  <path class="fil0" d="M1441.12 854.94c-70.36,0 -111.4,-61.58 -111.4,-165.43 0,-101.43 41.04,-163.01 111.4,-163.01 49.25,0 86.78,35.02 93.82,89.36l201.7 0c-11.73,-155.77 -125.48,-252.37 -296.69,-252.37 -195.84,0 -321.32,129.2 -321.32,327.23 0,199.24 125.48,327.24 321.32,327.24 171.21,0 284.96,-96.6 296.69,-252.37l-201.7 0c-7.04,54.34 -44.56,89.36 -93.82,89.36zm1003.82 148.52l0 -857.33 -209.91 0 0 322.41c-34.01,-65.21 -104.37,-105.05 -187.63,-105.05 -148.93,0 -249.78,131.62 -249.78,327.23 0,198.03 99.68,327.24 249.78,327.24 84.44,0 154.79,-39.85 189.98,-106.26l11.73 91.77 195.84 0zm-205.22 -312.75c0,101.43 -44.56,164.22 -114.92,164.22 -69.19,0 -113.75,-64 -113.75,-164.22 0,-100.22 44.56,-164.22 113.75,-164.22 70.36,0 114.92,62.79 114.92,164.22zm710.64 -318.78c-14.07,-3.62 -31.66,-6.04 -49.25,-6.04 -64.5,0 -119.61,37.43 -150.1,105.05l-11.73 -92.98 -195.84 0 0 625.49 209.91 0 0 -277.73c0,-105.05 55.12,-165.43 150.1,-165.43 19.93,0 35.18,2.41 46.9,6.04l0 -194.41z"/>
  <g style="clip-path:url(#id0)">
   <g id="_1643969182240">
    <path id="_1" class="fil1" d="M3162.35 1895.98c-2231.43,0 -4040.37,-272.35 -4040.37,-608.3 0,-335.95 1808.94,-608.3 4040.37,-608.3 2231.43,0 4040.37,272.34 4040.37,608.3 0,335.95 -1808.94,608.3 -4040.37,608.3z"/>
   </g>
  </g>
  <g style="clip-path:url(#id1)">
   <g id="_1643969182240">
    <path class="fil1" d="M3162.35 1895.98c-2231.43,0 -4040.37,-272.35 -4040.37,-608.3 0,-335.95 1808.94,-608.3 4040.37,-608.3 2231.43,0 4040.37,272.34 4040.37,608.3 0,335.95 -1808.94,608.3 -4040.37,608.3z"/>
   </g>
  </g>
  <g style="clip-path:url(#id2)">
   <g id="_1643969182240">
    <path class="fil1" d="M3162.35 1895.98c-2231.43,0 -4040.37,-272.35 -4040.37,-608.3 0,-335.95 1808.94,-608.3 4040.37,-608.3 2231.43,0 4040.37,272.34 4040.37,608.3 0,335.95 -1808.94,608.3 -4040.37,608.3z"/>
   </g>
  </g>
  <path class="fil2" d="M3225.95 1003.46l0 -857.33 -209.91 0 0 857.33 209.91 0zm403.41 -639.98c-191.15,0 -322.49,134.04 -322.49,327.23 0,193.2 131.34,327.24 322.49,327.24 191.15,0 320.14,-134.04 320.14,-327.24 0,-193.2 -129,-327.23 -320.14,-327.23zm-1.17 491.46c-68.02,0 -111.41,-64 -111.41,-164.22 0,-101.43 43.39,-164.22 111.41,-164.22 69.18,0 111.41,62.79 111.41,164.22 0,100.22 -42.22,164.22 -111.41,164.22zm698.92 227.01c-55.11,0 -89.12,-24.15 -100.85,-71.24l-201.7 0c9.38,134.03 128.99,224.6 297.86,224.6 200.53,0 322.49,-102.64 322.49,-291.01l0 -566.32 -197.01 0 -10.55 84.53c-30.49,-62.79 -98.51,-99.02 -179.42,-99.02 -151.28,0 -249.78,120.75 -249.78,301.88 0,181.13 100.85,301.88 250.95,301.88 85.61,0 145.41,-39.85 175.91,-99.02l0 85.73c0,86.94 -37.53,128 -107.89,128zm116.1 -414.17c0,90.56 -44.56,149.73 -113.75,149.73 -66.84,0 -111.41,-59.17 -111.41,-149.73 0,-91.77 44.56,-149.73 111.41,-149.73 69.19,0 113.75,57.96 113.75,149.73zm603.93 -304.29c-191.15,0 -322.49,134.04 -322.49,327.23 0,193.2 131.34,327.24 322.49,327.24 191.15,0 320.14,-134.04 320.14,-327.24 0,-193.2 -128.99,-327.23 -320.14,-327.23zm-1.17 491.46c-68.01,0 -111.41,-64 -111.41,-164.22 0,-101.43 43.39,-164.22 111.41,-164.22 69.19,0 111.41,62.79 111.41,164.22 0,100.22 -42.22,164.22 -111.41,164.22z"/>
  <g style="clip-path:url(#id3)">
   <g id="_1643969182240">
    <path id="_1_1" class="fil1" d="M3162.35 1895.98c-2231.43,0 -4040.37,-272.35 -4040.37,-608.3 0,-335.95 1808.94,-608.3 4040.37,-608.3 2231.43,0 4040.37,272.34 4040.37,608.3 0,335.95 -1808.94,608.3 -4040.37,608.3z"/>
   </g>
  </g>
  <g style="clip-path:url(#id4)">
   <g id="_1643969182240">
    <path class="fil1" d="M3162.35 1895.98c-2231.43,0 -4040.37,-272.35 -4040.37,-608.3 0,-335.95 1808.94,-608.3 4040.37,-608.3 2231.43,0 4040.37,272.34 4040.37,608.3 0,335.95 -1808.94,608.3 -4040.37,608.3z"/>
   </g>
  </g>
  <g style="clip-path:url(#id5)">
   <g id="_1643969182240">
    <path class="fil1" d="M3162.35 1895.98c-2231.43,0 -4040.37,-272.35 -4040.37,-608.3 0,-335.95 1808.94,-608.3 4040.37,-608.3 2231.43,0 4040.37,272.34 4040.37,608.3 0,335.95 -1808.94,608.3 -4040.37,608.3z"/>
   </g>
  </g>
  <g style="clip-path:url(#id6)">
   <g id="_1643969182240">
    <path class="fil1" d="M3162.35 1895.98c-2231.43,0 -4040.37,-272.35 -4040.37,-608.3 0,-335.95 1808.94,-608.3 4040.37,-608.3 2231.43,0 4040.37,272.34 4040.37,608.3 0,335.95 -1808.94,608.3 -4040.37,608.3z"/>
   </g>
  </g>
  <path class="fil3" d="M593.49 708.42c-20.2,10.14 -177.52,11.41 -201.26,-0.54 -3.8,-24.75 7.18,-25.69 30.34,-25.69 63.28,-0.27 116.14,-6.15 172.08,5.4l-1.16 20.83zm-101.04 70.31c178.87,-0.95 371.37,73.35 395.52,-75.1 7.87,-48.38 -1.28,-108.05 -15.06,-150.83 -46.68,-144.92 -175.4,-293.07 -359.75,-306.66 -5.36,-27 -6.93,-133.16 -3.42,-155.89 8.02,-25.05 29.55,-16.58 28.57,-51.38 -0.62,-21.79 -17.51,-38.83 -41.2,-38.86 -24.05,-0.02 -40.36,17.07 -41.19,39.18 -1.33,35.42 20.23,25.14 28.34,51.06l-1.24 153.81c-43.48,15.6 -118.97,1.67 -228.19,102.4 -54.04,49.84 -101.17,116.55 -130.44,200.4 -30.68,87.88 -40,214.85 53.36,241.03 70.7,19.82 228.72,-8.68 314.68,-9.14zm-182.46 -331.44c114.09,-32.84 159.04,140.01 49.05,171.12 -113.77,32.18 -164.35,-137.94 -49.05,-171.12zm371.31 171.21c-115.34,31.63 -164.26,-138.63 -49.96,-171.34 117.2,-33.54 156.41,142.15 49.96,171.34z"/>
  <path class="fil3" d="M678.76 814.25c-190.41,-12.78 -180.77,-18.25 -378.91,1.78 -129.48,13.1 -134.19,-16.02 -174.83,-21.91 -2.9,130.96 -18.88,96.06 113.39,169.95 65.14,36.4 116.2,69.74 200.63,82.28 88.16,13.1 173.23,-8.46 236.46,-41.62l180.33 -103.02 0.81 -99.86c-106.35,19.9 -46.84,21.2 -177.87,12.39z"/>
  <path class="fil3" d="M874.74 491.18c31.16,67.56 37.2,110.26 41.53,185.83 105.56,-20.24 116.3,-250.82 -65.71,-237.96 4.5,17.29 16.59,35.65 24.19,52.13z"/>
  <path class="fil3" d="M77.48 676.64c11.55,-177.16 54.76,-180.86 63.67,-238.44 -74.35,-1.2 -119.47,30.97 -137.29,95.69 -17.32,62.91 26.54,134.59 73.62,142.75z"/>
  <ellipse class="fil4" cx="283.2" cy="491.98" rx="26.71" ry="27.14"/>
  <ellipse class="fil4" cx="614.99" cy="484.37" rx="26.71" ry="27.14"/>
 </g>
</svg>
